<svg id="Layer_1" data-name="Layer 1" xmlns="http://www.w3.org/2000/svg" viewBox="0 0 48.3 71"><defs><style>.cls-1{fill:#52c41a;}</style></defs><title>favicon</title><path class="cls-1" d="M44.59,89h-9.3V41.3q0-10.3,6.65-16.8A22.61,22.61,0,0,1,58.39,18q10.8,0,16.25,5.45A18.16,18.16,0,0,1,80.09,36.8q0,10.1-9.4,14.5v.4q12.9,3.7,12.9,17.9,0,19.4-22.9,19.4H48.19V80.2h12.4q6.9,0,10.1-2.8t3.2-9q0-5.4-3.45-8.3t-9.35-2.9h-9.9V48.9h6.4A14.75,14.75,0,0,0,66.84,46a9.52,9.52,0,0,0,3.85-8,11.38,11.38,0,0,0-3-8q-3-3.19-9.55-3.2a13.35,13.35,0,0,0-9.8,3.75q-3.81,3.75-3.8,11Z" transform="translate(-35.29 -18)"/></svg>