<svg id="Layer_1" data-name="Layer 1" xmlns="http://www.w3.org/2000/svg" viewBox="0 0 426.29 93.8"><defs><style>.cls-1{fill:#52c41a;}.cls-2{fill:#95de64;}</style></defs><title>full-logo</title><path class="cls-1" d="M15.8,85H6.5V37.3q0-10.3,6.65-16.8A22.63,22.63,0,0,1,29.6,14q10.8,0,16.25,5.45A18.16,18.16,0,0,1,51.3,32.8q0,10.1-9.4,14.5v.4q12.9,3.7,12.9,17.9Q54.8,85,31.9,85H19.4V76.2H31.8q6.9,0,10.1-2.8t3.2-9q0-5.4-3.45-8.3T32.3,53.2H22.4V44.9h6.4A14.75,14.75,0,0,0,38.05,42a9.49,9.49,0,0,0,3.85-8A11.33,11.33,0,0,0,39,26q-3-3.19-9.55-3.2a13.35,13.35,0,0,0-9.8,3.75q-3.8,3.75-3.8,11Z" transform="translate(-6.5 -14)"/><path class="cls-1" d="M63.8,85V57.7q0-11.51,4.3-15.9a13.16,13.16,0,0,1,5.1-3.3,21,21,0,0,1,5.25-1.3Q80.7,37,84.6,37h8.8v8.4H82.8c-1.34,0-2.37,0-3.1.1a9.59,9.59,0,0,0-2.6.7,6.52,6.52,0,0,0-2.6,1.9q-1.91,2.4-1.9,9.6V85Z" transform="translate(-6.5 -14)"/><path class="cls-1" d="M112.9,85h-8.8V45.4H95.9l4-8.4h13Zm-9.2-58a5.94,5.94,0,0,1-1.3-3.7,5.75,5.75,0,0,1,1.3-3.65,5.67,5.67,0,0,1,8,0,5.77,5.77,0,0,1,0,7.3,5.74,5.74,0,0,1-8,.05Z" transform="translate(-6.5 -14)"/><path class="cls-1" d="M148.6,85a23.6,23.6,0,0,1-16.8-6.6q-7-6.6-7-16.9A24.08,24.08,0,0,1,149.3,37h23.5V83.6a26.77,26.77,0,0,1-1.15,8.1,17.85,17.85,0,0,1-3.25,6.1,31.73,31.73,0,0,1-3.8,3.9,40.21,40.21,0,0,1-4.1,2.9,32.68,32.68,0,0,1-15.1,3.2H134.2V99.4h10.3q8.79,0,12.5-2.2,6.8-3.8,6.8-12.6V45.4H149.3q-7.11,0-11.3,4.4t-4.2,11.7q0,7,4.35,11a14.79,14.79,0,0,0,10.45,4A19.35,19.35,0,0,0,160.2,73v9A23.52,23.52,0,0,1,148.6,85Z" transform="translate(-6.5 -14)"/><path class="cls-1" d="M194.1,15V37h8.5q11.1,0,15.9,3.3a12.62,12.62,0,0,1,5.45,7A40.43,40.43,0,0,1,225.1,57.9V85h-8.8V58c0-1.2,0-2.22-.1-3a15.92,15.92,0,0,0-.7-3.2,8.62,8.62,0,0,0-1.7-3.2,9.37,9.37,0,0,0-3.2-2.2,12.38,12.38,0,0,0-5.1-1H194.1V85h-8.8V15Z" transform="translate(-6.5 -14)"/><path class="cls-1" d="M232.1,45.4,250,27.5V37h13.5v8.4H250V66a12.88,12.88,0,0,0,1.15,5.8,6.58,6.58,0,0,0,3.35,3.25,17.16,17.16,0,0,0,4.15,1.25,32.65,32.65,0,0,0,4.85.3V85q-11.5,0-17-4.4T241,66V45.4Z" transform="translate(-6.5 -14)"/><path class="cls-2" d="M286,85h-8.8V45.4H269l4-8.4h13Zm-9.21-58a6,6,0,0,1-1.29-3.7,5.79,5.79,0,0,1,1.29-3.65,5.67,5.67,0,0,1,8,0,5.77,5.77,0,0,1,0,7.3,4.77,4.77,0,0,1-4,1.65A4.86,4.86,0,0,1,276.79,27Z" transform="translate(-6.5 -14)"/><path class="cls-2" d="M296.89,85V81A20.43,20.43,0,0,1,299,71.85a29.65,29.65,0,0,1,5.4-7.65q3.26-3.3,6.6-6.2t6.4-6.1a18.72,18.72,0,0,0,4.15-6.1H297V37h34.8v4.9a17.44,17.44,0,0,1-2.15,8.4,29.1,29.1,0,0,1-5.45,7.2q-3.3,3.2-6.75,6.1a82,82,0,0,0-6.6,6.2,21.69,21.69,0,0,0-4.45,6.4h26.1V85Z" transform="translate(-6.5 -14)"/><path class="cls-2" d="M365.49,36q17,.7,17,14.1,0,16.69-21.9,16.7h-4.1V59.1h4.8q6.7,0,9.3-2.05c1.74-1.37,2.6-3.65,2.6-6.85a5.21,5.21,0,0,0-2.3-4.65A10.37,10.37,0,0,0,365,44a13.58,13.58,0,0,0-11.15,5,18.45,18.45,0,0,0-4,12q0,7.4,4.35,12a14.9,14.9,0,0,0,11.35,4.6,16.3,16.3,0,0,0,10.3-3.1l6,5.9a25.08,25.08,0,0,1-16.3,5.6q-11.4,0-18.2-6.7T340.49,62q0-11.8,6.7-19.1T365.49,36Z" transform="translate(-6.5 -14)"/><path class="cls-2" d="M393,37h17.3q11.1,0,15.9,3.3a12.54,12.54,0,0,1,5.45,7,40,40,0,0,1,1.15,10.65V85H424V58c0-1.2,0-2.22-.1-3a15.25,15.25,0,0,0-.7-3.2,8.48,8.48,0,0,0-1.7-3.2,9.27,9.27,0,0,0-3.2-2.2,12.38,12.38,0,0,0-5.1-1h-11.4V85H393Z" transform="translate(-6.5 -14)"/></svg>