<svg id="Layer_1" data-name="Layer 1" xmlns="http://www.w3.org/2000/svg" viewBox="0 0 473.81 473.81"><defs><style>.cls-1{fill:#fff;}.cls-2{fill:#52c41a;}.cls-3{fill:#95de64;}</style></defs><title>square-logo</title><rect class="cls-1" width="473.81" height="473.81"/><path class="cls-2" d="M35.08,272.9h-9.3V225.2q0-10.29,6.65-16.8a22.63,22.63,0,0,1,16.45-6.5q10.8,0,16.25,5.45a18.19,18.19,0,0,1,5.45,13.35q0,10.11-9.4,14.5v.4q12.9,3.71,12.9,17.9,0,19.41-22.9,19.4H38.68v-8.8h12.4q6.9,0,10.1-2.8t3.2-9c0-3.6-1.15-6.36-3.45-8.3s-5.42-2.9-9.35-2.9h-9.9v-8.3h6.4a14.75,14.75,0,0,0,9.25-3,9.47,9.47,0,0,0,3.85-7.95,11.35,11.35,0,0,0-3-8q-3-3.19-9.55-3.2a13.35,13.35,0,0,0-9.8,3.75q-3.8,3.75-3.8,11Z"/><path class="cls-2" d="M83.08,272.9V245.6q0-11.49,4.3-15.9a13.39,13.39,0,0,1,5.1-3.3,21.47,21.47,0,0,1,5.25-1.3q2.25-.19,6.15-.2h8.8v8.4h-10.6c-1.34,0-2.37,0-3.1.1a9.59,9.59,0,0,0-2.6.7,6.61,6.61,0,0,0-2.6,1.9q-1.91,2.4-1.9,9.6v27.3Z"/><path class="cls-2" d="M132.18,272.9h-8.8V233.3h-8.2l4-8.4h13Zm-9.2-58a5.92,5.92,0,0,1-1.3-3.7,5.75,5.75,0,0,1,1.3-3.65,5.67,5.67,0,0,1,8,0,5.77,5.77,0,0,1,0,7.3,5.74,5.74,0,0,1-8,.05Z"/><path class="cls-2" d="M167.88,272.9a23.6,23.6,0,0,1-16.8-6.6q-7-6.6-7-16.9a24.08,24.08,0,0,1,24.5-24.5h23.5v46.6a26.77,26.77,0,0,1-1.15,8.1,17.76,17.76,0,0,1-3.25,6.1,30.36,30.36,0,0,1-3.8,3.9,38.7,38.7,0,0,1-4.1,2.9,32.56,32.56,0,0,1-15.1,3.2h-11.2v-8.4h10.3q8.79,0,12.5-2.2,6.79-3.8,6.8-12.6V233.3h-14.5q-7.11,0-11.3,4.4t-4.2,11.7q0,7,4.35,11a14.79,14.79,0,0,0,10.45,4.05,19.35,19.35,0,0,0,11.6-3.6v9A23.52,23.52,0,0,1,167.88,272.9Z"/><path class="cls-2" d="M213.38,202.9v22h8.5q11.1,0,15.9,3.3a12.66,12.66,0,0,1,5.45,7,40.43,40.43,0,0,1,1.15,10.65v27.1h-8.8v-27c0-1.2,0-2.21-.1-3.05a15.92,15.92,0,0,0-.7-3.2,8.7,8.7,0,0,0-1.7-3.2,9.51,9.51,0,0,0-3.2-2.2,12.38,12.38,0,0,0-5.1-.95h-11.4v39.6h-8.8v-70Z"/><path class="cls-2" d="M251.38,233.3l17.9-17.9v9.5h13.5v8.4h-13.5v20.6a12.86,12.86,0,0,0,1.15,5.8,6.54,6.54,0,0,0,3.35,3.25,16.72,16.72,0,0,0,4.15,1.25,32.65,32.65,0,0,0,4.85.3v8.4q-11.5,0-17-4.4t-5.5-14.6V233.3Z"/><path class="cls-3" d="M305.28,272.9h-8.8V233.3h-8.2l4-8.4h13Zm-9.21-58a6,6,0,0,1-1.29-3.7,5.79,5.79,0,0,1,1.29-3.65,5.67,5.67,0,0,1,8,0,5.77,5.77,0,0,1,0,7.3,4.77,4.77,0,0,1-4,1.65A4.86,4.86,0,0,1,296.07,214.9Z"/><path class="cls-3" d="M316.17,272.9v-4a20.43,20.43,0,0,1,2.15-9.15,29.65,29.65,0,0,1,5.4-7.65q3.25-3.3,6.6-6.2a87.82,87.82,0,0,0,6.4-6.1,18.62,18.62,0,0,0,4.15-6.1h-24.6v-8.8h34.8v4.9a17.39,17.39,0,0,1-2.15,8.4,29.1,29.1,0,0,1-5.45,7.2q-3.3,3.21-6.75,6.1a83.79,83.79,0,0,0-6.6,6.2,21.82,21.82,0,0,0-4.45,6.4h26.1v8.8Z"/><path class="cls-3" d="M384.77,223.9q17,.71,17,14.1,0,16.71-21.9,16.7h-4.1V247h4.8q6.71,0,9.3-2.05c1.74-1.36,2.6-3.65,2.6-6.85a5.23,5.23,0,0,0-2.3-4.65,10.37,10.37,0,0,0-5.9-1.55,13.58,13.58,0,0,0-11.15,5,18.49,18.49,0,0,0-4.05,12q0,7.41,4.35,12a14.9,14.9,0,0,0,11.35,4.6,16.3,16.3,0,0,0,10.3-3.1l6,5.9a25,25,0,0,1-16.3,5.6q-11.4,0-18.2-6.7t-6.8-17.3q0-11.79,6.7-19.1T384.77,223.9Z"/><path class="cls-3" d="M412.27,224.9h17.3q11.1,0,15.9,3.3a12.57,12.57,0,0,1,5.45,7,40,40,0,0,1,1.15,10.65v27.1h-8.8v-27c0-1.2,0-2.21-.1-3.05a15.25,15.25,0,0,0-.7-3.2,8.56,8.56,0,0,0-1.7-3.2,9.41,9.41,0,0,0-3.2-2.2,12.38,12.38,0,0,0-5.1-.95h-11.4v39.6h-8.8Z"/></svg>