<svg id="Layer_1" data-name="Layer 1" xmlns="http://www.w3.org/2000/svg" viewBox="0 0 473.81 473.81"><defs><style>.cls-1{fill:#fff;}.cls-2{fill:#ff6d00;}.cls-3{fill:#ff9800;}</style></defs><title>square-logo</title><rect class="cls-1" width="473.81" height="473.81"/><path class="cls-2" d="M73.26,251.89a27.36,27.36,0,0,1-2,10.56,24.9,24.9,0,0,1-5.37,8.19,24,24,0,0,1-8,5.3,25.57,25.57,0,0,1-9.8,1.88,24.7,24.7,0,0,1-9.75-1.93,24.45,24.45,0,0,1-8-5.37A25,25,0,0,1,25,262.33a26.9,26.9,0,0,1-2-10.44v-43.7H35.62v22.95a11.26,11.26,0,0,1,2.46-2.29,13.69,13.69,0,0,1,3.12-1.65,20.19,20.19,0,0,1,3.46-1,18.52,18.52,0,0,1,3.49-.35,24.52,24.52,0,0,1,17.76,7.39,25.87,25.87,0,0,1,5.37,8.24A26.77,26.77,0,0,1,73.26,251.89Zm-12.63,0a14,14,0,0,0-1-5.3A13.45,13.45,0,0,0,57,242.34a12.38,12.38,0,0,0-4-2.8,11.83,11.83,0,0,0-4.84-1,10.76,10.76,0,0,0-4.84,1.13,13.24,13.24,0,0,0-4,3,13.91,13.91,0,0,0-2.66,4.27,13.18,13.18,0,0,0-1,5,14,14,0,0,0,1,5.28,13,13,0,0,0,2.66,4.22,12.6,12.6,0,0,0,4,2.82,11.89,11.89,0,0,0,9.68,0,12.6,12.6,0,0,0,4-2.82,13.42,13.42,0,0,0,2.69-4.22A13.86,13.86,0,0,0,60.63,251.89Z"/><path class="cls-2" d="M92.72,276.9H80.19V227.75h3l4.13,5.83a21.73,21.73,0,0,1,6.88-4.25,22,22,0,0,1,8-1.49h11.06v12.48H102.22a9.55,9.55,0,0,0-6.75,2.76,9.2,9.2,0,0,0-2,3,9.44,9.44,0,0,0-.73,3.71Z"/><path class="cls-2" d="M133.89,214.39a7.93,7.93,0,0,1-.67,3.26,8.39,8.39,0,0,1-1.81,2.64,8.91,8.91,0,0,1-2.69,1.79,8.48,8.48,0,0,1-6.56,0,8.65,8.65,0,0,1-2.66-1.79,8.5,8.5,0,0,1-1.79-2.64,8.09,8.09,0,0,1-.67-3.26,8.17,8.17,0,0,1,.67-3.24,8.48,8.48,0,0,1,1.79-2.66,8.65,8.65,0,0,1,2.66-1.79,8.48,8.48,0,0,1,6.56,0,8.91,8.91,0,0,1,2.69,1.79,8.36,8.36,0,0,1,1.81,2.66A8,8,0,0,1,133.89,214.39Zm-2.16,62.51H119.11V227.75h12.62Z"/><path class="cls-2" d="M188.87,270.71a24.11,24.11,0,0,1-2,9.73,25.37,25.37,0,0,1-5.39,7.94,25.76,25.76,0,0,1-8,5.37,24.38,24.38,0,0,1-9.75,2l-6.29-.09V283.1l6.2.09a14.49,14.49,0,0,0,5-.76,10.28,10.28,0,0,0,3.49-2.06,10.39,10.39,0,0,0,2.27-3,18.09,18.09,0,0,0,1.35-3.58,5.46,5.46,0,0,1-2.11,2,14.41,14.41,0,0,1-3.05,1.24,19.77,19.77,0,0,1-3.49.67c-1.21.12-2.33.18-3.37.18A26.6,26.6,0,0,1,154,276a23.33,23.33,0,0,1-13.37-13.26,28.43,28.43,0,0,1-2-10.88,26.7,26.7,0,0,1,2-10.33A25.63,25.63,0,0,1,146,233.3a24.76,24.76,0,0,1,8-5.46,24.3,24.3,0,0,1,9.76-2,19,19,0,0,1,4.73.6,24.93,24.93,0,0,1,4.54,1.65,28.59,28.59,0,0,1,4.2,2.48,35,35,0,0,1,3.74,3.08l4.87-5.83h3Zm-12.62-18.82a13.19,13.19,0,0,0-1-5,14.38,14.38,0,0,0-2.69-4.27,13.24,13.24,0,0,0-4-3,10.76,10.76,0,0,0-4.84-1.13,13.37,13.37,0,0,0-4.84.87,11.16,11.16,0,0,0-4,2.57,12.13,12.13,0,0,0-2.64,4.2,15.92,15.92,0,0,0-1,5.72,15.09,15.09,0,0,0,1,5.53,12.51,12.51,0,0,0,2.64,4.2,11.44,11.44,0,0,0,4,2.68,12.43,12.43,0,0,0,4.84.94,10.75,10.75,0,0,0,4.84-1.12,13.24,13.24,0,0,0,4-3,14.51,14.51,0,0,0,2.69-4.27A13.19,13.19,0,0,0,176.25,251.89Z"/><path class="cls-2" d="M211,276.9H198.42V208.19H211V229.9a14.84,14.84,0,0,1,4.64-2.41,17.06,17.06,0,0,1,4.86-.71A21.47,21.47,0,0,1,229,228.5a21.8,21.8,0,0,1,6.95,4.73,22.48,22.48,0,0,1,4.68,7,21.47,21.47,0,0,1,1.73,8.56V276.9H229.72V248.81h.1a9.23,9.23,0,0,0-.74-3.65,9.49,9.49,0,0,0-5-5,9,9,0,0,0-3.63-.74,9.45,9.45,0,0,0-3.71.74,9.2,9.2,0,0,0-3,2,9.5,9.5,0,0,0-2,3,9.23,9.23,0,0,0-.74,3.65Z"/><path class="cls-2" d="M275.26,276.9a21.3,21.3,0,0,1-8.54-1.72A22.23,22.23,0,0,1,255,263.45a21.25,21.25,0,0,1-1.72-8.53v-14.6h-6.1V227.84h6.1V208.19h12.48v19.65h19v12.48h-19v14.6a9.28,9.28,0,0,0,.74,3.69,9.46,9.46,0,0,0,5.05,5.05,9.14,9.14,0,0,0,3.72.76h9.5V276.9Z"/><path class="cls-3" d="M306.56,214.39a7.93,7.93,0,0,1-.67,3.26,8.39,8.39,0,0,1-1.81,2.64,8.91,8.91,0,0,1-2.69,1.79,8.48,8.48,0,0,1-6.56,0,8.65,8.65,0,0,1-2.66-1.79,8.5,8.5,0,0,1-1.79-2.64,8.09,8.09,0,0,1-.67-3.26,8.17,8.17,0,0,1,.67-3.24,8.48,8.48,0,0,1,1.79-2.66,8.65,8.65,0,0,1,2.66-1.79,8.48,8.48,0,0,1,6.56,0,8.91,8.91,0,0,1,2.69,1.79,8.36,8.36,0,0,1,1.81,2.66A8,8,0,0,1,306.56,214.39ZM304.4,276.9H291.78V227.75H304.4Z"/><path class="cls-3" d="M352.32,276.9h-41L332,240.32h-20.7V227.84h41l-20.7,36.58h20.7Z"/><path class="cls-3" d="M378.07,264.88a7.68,7.68,0,0,0,1.47.3q.73.06,1.47.06a12.2,12.2,0,0,0,3.53-.5,12.77,12.77,0,0,0,3.19-1.45,11.82,11.82,0,0,0,2.66-2.29,12.1,12.1,0,0,0,1.91-3l9.18,9.23a25.21,25.21,0,0,1-8.93,7.8,24.28,24.28,0,0,1-5.55,2.09,25.43,25.43,0,0,1-6,.71,24.78,24.78,0,0,1-9.76-1.93,24.4,24.4,0,0,1-8-5.37,25.18,25.18,0,0,1-5.4-8.19,27.08,27.08,0,0,1-2-10.44,27.94,27.94,0,0,1,2-10.65,24.69,24.69,0,0,1,5.4-8.22,24.29,24.29,0,0,1,8-5.27,25.3,25.3,0,0,1,9.76-1.89,24.67,24.67,0,0,1,6,.74,25.36,25.36,0,0,1,5.58,2.11,25.78,25.78,0,0,1,4.93,3.37,24.89,24.89,0,0,1,4,4.48ZM384.49,239a7.31,7.31,0,0,0-1.72-.42,16.58,16.58,0,0,0-1.76-.09,12.7,12.7,0,0,0-4.85.94,11.56,11.56,0,0,0-3.94,2.69,12.51,12.51,0,0,0-2.64,4.2,14.85,14.85,0,0,0-1,5.53c0,.46,0,1,.07,1.56s.12,1.17.23,1.77.24,1.17.39,1.72a6.11,6.11,0,0,0,.6,1.47Z"/><path class="cls-3" d="M420.39,276.9H407.86V227.75h3l4.13,4.77a22,22,0,0,1,14.87-5.74,21.33,21.33,0,0,1,8.49,1.72,22.15,22.15,0,0,1,7,4.73,22.71,22.71,0,0,1,4.7,7,21.46,21.46,0,0,1,1.72,8.56V276.9H439.25V248.81a9.22,9.22,0,0,0-.73-3.65,9.67,9.67,0,0,0-2-3,9.45,9.45,0,0,0-3-2,9,9,0,0,0-3.62-.74,9.43,9.43,0,0,0-8.77,5.76,9.22,9.22,0,0,0-.73,3.65Z"/></svg>