<svg id="Layer_1" data-name="Layer 1" xmlns="http://www.w3.org/2000/svg" viewBox="0 0 64.1 88.89"><defs><style>.cls-1{fill:#ff6d00;}</style></defs><title>favicon</title><path class="cls-1" d="M92.69,70.07a34.9,34.9,0,0,1-2.52,13.47A31.92,31.92,0,0,1,83.32,94a30.56,30.56,0,0,1-10.17,6.77,32.56,32.56,0,0,1-12.51,2.4A31.72,31.72,0,0,1,38,93.86,32.21,32.21,0,0,1,31.11,83.4a34.44,34.44,0,0,1-2.52-13.33V14.29H44.64V43.58a14.69,14.69,0,0,1,3.14-2.93,18.71,18.71,0,0,1,4-2.11,27.43,27.43,0,0,1,4.43-1.26,23.79,23.79,0,0,1,4.45-.44,31.54,31.54,0,0,1,12.51,2.49,31,31,0,0,1,10.17,7,33.12,33.12,0,0,1,6.85,10.51A34.3,34.3,0,0,1,92.69,70.07Zm-16.11,0a18,18,0,0,0-1.26-6.77,16.87,16.87,0,0,0-3.43-5.42,15.67,15.67,0,0,0-5.07-3.58A15.17,15.17,0,0,0,60.64,53a13.68,13.68,0,0,0-6.18,1.43,17.25,17.25,0,0,0-5.07,3.81A17.9,17.9,0,0,0,46,63.71a17,17,0,0,0-1.23,6.36A18.1,18.1,0,0,0,46,76.8a16.75,16.75,0,0,0,3.4,5.4,16.27,16.27,0,0,0,5.07,3.6,15.13,15.13,0,0,0,12.36,0,16,16,0,0,0,5.07-3.6,17,17,0,0,0,3.43-5.4A17.72,17.72,0,0,0,76.58,70.07Z" transform="translate(-28.59 -14.29)"/></svg>