<svg id="Layer_1" data-name="Layer 1" xmlns="http://www.w3.org/2000/svg" viewBox="0 0 428.74 89.69"><defs><style>.cls-1{fill:#ff6d00;}.cls-2{fill:#ff9800;}</style></defs><title>full-logo</title><path class="cls-1" d="M54,54.89a27.29,27.29,0,0,1-2,10.56,24.9,24.9,0,0,1-5.37,8.19,24.06,24.06,0,0,1-8,5.31,25.57,25.57,0,0,1-9.8,1.88,24.85,24.85,0,0,1-17.74-7.3,25.21,25.21,0,0,1-5.39-8.19,26.91,26.91,0,0,1-2-10.45V11.2H16.34v23a11.3,11.3,0,0,1,2.46-2.3,14.52,14.52,0,0,1,3.12-1.65,20.19,20.19,0,0,1,3.46-1,18.49,18.49,0,0,1,3.49-.34,24.71,24.71,0,0,1,9.8,1.95,24.25,24.25,0,0,1,8,5.44A25.76,25.76,0,0,1,52,44.5,26.75,26.75,0,0,1,54,54.89Zm-12.63,0a14.07,14.07,0,0,0-1-5.3,13.4,13.4,0,0,0-2.69-4.24,12.08,12.08,0,0,0-4-2.8,11.83,11.83,0,0,0-4.84-1A10.75,10.75,0,0,0,24,42.66a13.27,13.27,0,0,0-4,3,14,14,0,0,0-2.66,4.26,13.18,13.18,0,0,0-1,5,14,14,0,0,0,1,5.28,13.15,13.15,0,0,0,2.66,4.23,12.6,12.6,0,0,0,4,2.82,11.89,11.89,0,0,0,9.68,0,12.6,12.6,0,0,0,4-2.82,13.58,13.58,0,0,0,2.69-4.23A13.86,13.86,0,0,0,41.35,54.89Z" transform="translate(-3.76 -9.04)"/><path class="cls-1" d="M73.44,79.91H60.91V30.75h3l4.13,5.83a22.23,22.23,0,0,1,14.87-5.74H94V43.33H82.94a9.46,9.46,0,0,0-3.72.73,9.57,9.57,0,0,0-3,2,9.49,9.49,0,0,0-2.75,6.75Z" transform="translate(-3.76 -9.04)"/><path class="cls-1" d="M114.61,17.4a7.88,7.88,0,0,1-.67,3.25,8.39,8.39,0,0,1-1.81,2.64,8.73,8.73,0,0,1-2.69,1.79,8.36,8.36,0,0,1-6.56,0,8.41,8.41,0,0,1-4.45-4.43,8,8,0,0,1-.67-3.25,8.14,8.14,0,0,1,.67-3.24,8.36,8.36,0,0,1,1.79-2.66,8.48,8.48,0,0,1,2.66-1.79,8.36,8.36,0,0,1,6.56,0,8.73,8.73,0,0,1,2.69,1.79,8.25,8.25,0,0,1,1.81,2.66A8,8,0,0,1,114.61,17.4Zm-2.16,62.51H99.83V30.75h12.62Z" transform="translate(-3.76 -9.04)"/><path class="cls-1" d="M169.59,73.71a24.08,24.08,0,0,1-2,9.73,25.27,25.27,0,0,1-13.38,13.31,24.21,24.21,0,0,1-9.75,2l-6.29-.09V86.11l6.2.09a14.73,14.73,0,0,0,5-.76,10.15,10.15,0,0,0,5.76-5.07,18.33,18.33,0,0,0,1.35-3.58,5.62,5.62,0,0,1-2.11,1.95A15,15,0,0,1,151.35,80a19.76,19.76,0,0,1-3.49.66,31.56,31.56,0,0,1-3.37.19A26.6,26.6,0,0,1,134.73,79a23.31,23.31,0,0,1-13.37-13.27,28.4,28.4,0,0,1-2-10.88,26.65,26.65,0,0,1,2-10.32,25.52,25.52,0,0,1,5.39-8.26,24.94,24.94,0,0,1,8-5.47,24.46,24.46,0,0,1,9.76-2,19,19,0,0,1,4.73.6,24.21,24.21,0,0,1,4.54,1.65A27.74,27.74,0,0,1,158,33.6a34.91,34.91,0,0,1,3.74,3.07l4.87-5.83h3ZM157,54.89a13.19,13.19,0,0,0-1-5,14.46,14.46,0,0,0-2.69-4.26,13.27,13.27,0,0,0-4-3,10.75,10.75,0,0,0-4.84-1.12,13.37,13.37,0,0,0-4.84.87,11,11,0,0,0-4,2.57,11.94,11.94,0,0,0-2.64,4.2,15.86,15.86,0,0,0-1,5.71,15.15,15.15,0,0,0,1,5.54,12.57,12.57,0,0,0,2.64,4.19,11.46,11.46,0,0,0,4,2.69,12.43,12.43,0,0,0,4.84.94,10.75,10.75,0,0,0,4.84-1.12,13.27,13.27,0,0,0,4-3A14.38,14.38,0,0,0,156,59.87,13.12,13.12,0,0,0,157,54.89Z" transform="translate(-3.76 -9.04)"/><path class="cls-1" d="M191.67,79.91H179.14V11.2h12.53V32.91a14.63,14.63,0,0,1,4.64-2.41,17.06,17.06,0,0,1,4.86-.71,21.3,21.3,0,0,1,8.54,1.72,21.64,21.64,0,0,1,6.95,4.73,22.25,22.25,0,0,1,4.68,7,21.47,21.47,0,0,1,1.73,8.56V79.91H210.44V51.82h.1a9.19,9.19,0,0,0-.74-3.65,9.43,9.43,0,0,0-2-3,9.7,9.7,0,0,0-3-2,9.19,9.19,0,0,0-3.63-.73,9.63,9.63,0,0,0-3.71.73,9.33,9.33,0,0,0-5.05,5,9.19,9.19,0,0,0-.74,3.65Z" transform="translate(-3.76 -9.04)"/><path class="cls-1" d="M256,79.91a21.47,21.47,0,0,1-8.54-1.72,22.23,22.23,0,0,1-11.73-11.73A21.3,21.3,0,0,1,234,57.92V43.33h-6.1V30.84H234V11.2h12.48V30.84h19V43.33h-19V57.92a9.41,9.41,0,0,0,2.76,6.7,9.59,9.59,0,0,0,3,2,9.3,9.3,0,0,0,3.72.75h9.5V79.91Z" transform="translate(-3.76 -9.04)"/><path class="cls-2" d="M287.28,17.4a7.88,7.88,0,0,1-.67,3.25,8.39,8.39,0,0,1-1.81,2.64,8.73,8.73,0,0,1-2.69,1.79,8.36,8.36,0,0,1-6.56,0,8.41,8.41,0,0,1-4.45-4.43,8,8,0,0,1-.67-3.25,8.14,8.14,0,0,1,.67-3.24,8.36,8.36,0,0,1,1.79-2.66,8.48,8.48,0,0,1,2.66-1.79,8.36,8.36,0,0,1,6.56,0,8.73,8.73,0,0,1,2.69,1.79,8.25,8.25,0,0,1,1.81,2.66A8,8,0,0,1,287.28,17.4Zm-2.16,62.51H272.5V30.75h12.62Z" transform="translate(-3.76 -9.04)"/><path class="cls-2" d="M333,79.91h-41l20.7-36.58h-20.7V30.84h41l-20.7,36.58H333Z" transform="translate(-3.76 -9.04)"/><path class="cls-2" d="M358.79,67.88a6.4,6.4,0,0,0,1.47.3,14.46,14.46,0,0,0,1.47.07,12.55,12.55,0,0,0,3.53-.5,12.77,12.77,0,0,0,3.19-1.45,11.87,11.87,0,0,0,2.66-2.3A12,12,0,0,0,373,61l9.18,9.22a25.12,25.12,0,0,1-4,4.46A25.52,25.52,0,0,1,373.27,78a24.76,24.76,0,0,1-5.55,2.09,25.43,25.43,0,0,1-6,.71A24.8,24.8,0,0,1,344,73.53a25.4,25.4,0,0,1-5.4-8.19,27.09,27.09,0,0,1-2-10.45,27.92,27.92,0,0,1,2-10.64A24.12,24.12,0,0,1,352,30.75a25.48,25.48,0,0,1,9.76-1.88,25.3,25.3,0,0,1,20.56,10.69ZM365.21,42a7.28,7.28,0,0,0-1.72-.41,16.58,16.58,0,0,0-1.76-.09,12.51,12.51,0,0,0-4.85.94,11.54,11.54,0,0,0-3.94,2.68,12.71,12.71,0,0,0-2.64,4.2,14.89,14.89,0,0,0-1,5.53c0,.46,0,1,.07,1.57s.12,1.17.23,1.76.24,1.17.39,1.72a6.11,6.11,0,0,0,.6,1.47Z" transform="translate(-3.76 -9.04)"/><path class="cls-2" d="M401.11,79.91H388.58V30.75h3l4.13,4.78a22,22,0,0,1,14.87-5.74,21.16,21.16,0,0,1,8.49,1.72,22,22,0,0,1,7,4.73,22.47,22.47,0,0,1,4.7,7,21.46,21.46,0,0,1,1.72,8.56V79.91H420V51.82a9.19,9.19,0,0,0-.73-3.65,9.44,9.44,0,0,0-5-5,9.18,9.18,0,0,0-3.62-.73,9.49,9.49,0,0,0-6.75,2.75,9.43,9.43,0,0,0-2,3,9.19,9.19,0,0,0-.73,3.65Z" transform="translate(-3.76 -9.04)"/></svg>